<?xml version="1.0" encoding="UTF-8"?>
<svg width="628px" height="339px" viewBox="0 0 628 339" version="1.1" xmlns="http://www.w3.org/2000/svg" xmlns:xlink="http://www.w3.org/1999/xlink">
    <title>premium_banner</title>
    <defs>
        <linearGradient x1="50%" y1="0%" x2="50%" y2="172.90825%" id="linearGradient-1">
            <stop stop-color="#FFD25D" offset="0%"></stop>
            <stop stop-color="#FFB138" offset="100%"></stop>
        </linearGradient>
        <rect id="path-2" x="0" y="0" width="628" height="339"></rect>
    </defs>
    <g id="Page-1" stroke="none" stroke-width="1" fill="none" fill-rule="evenodd">
        <g id="no_premium_2">
            <mask id="mask-3" fill="white">
                <use xlink:href="#path-2"></use>
            </mask>
            <use id="Rectangle" fill="url(#linearGradient-1)" xlink:href="#path-2"></use>
            <g id="table" mask="url(#mask-3)">
                <g transform="translate(243.000000, 61.000000)" id="Rectangle">
                    <rect stroke="none" fill-opacity="0.91" fill="#E68E4C" x="17" y="3" width="204" height="103" rx="8"></rect>
                    <rect stroke="none" fill-opacity="0.91" fill="#F2F1F1" x="20" y="0" width="204" height="103" rx="8"></rect>
                    <rect stroke="#979797" stroke-width="1" fill="#00BFBC" x="23.5" y="6.5" width="197" height="84" rx="2"></rect>
                    <rect stroke="#979797" stroke-width="1" fill="#D8D8D8" x="180.5" y="16.5" width="18" height="34" rx="2"></rect>
                    <rect stroke="none" fill-opacity="0.91" fill="#E68E4C" x="195" y="60" width="112" height="61" rx="2"></rect>
                    <rect stroke="none" fill-opacity="0.91" fill="#F2F1F1" x="196" y="59" width="112" height="61" rx="2"></rect>
                    <rect stroke="#979797" stroke-width="1" fill="#000000" x="199.5" y="63.5" width="105" height="54" rx="2"></rect>
                    <rect stroke="#979797" stroke-width="1" fill="#000000" x="43.5" y="22.5" width="105" height="54" rx="2"></rect>
                    <rect stroke="none" fill="#474747" x="70" y="26" width="74" height="34" rx="2"></rect>
                    <rect stroke="none" fill="#EDD984" x="72" y="47" width="19" height="1" rx="0.5"></rect>
                    <rect stroke="none" fill="#A99647" x="72" y="32" width="46" height="1" rx="0.5"></rect>
                    <rect stroke="none" fill="#A94779" x="72" y="35" width="20" height="1" rx="0.5"></rect>
                    <rect stroke="none" fill="#475CA9" x="72" y="38" width="20" height="1" rx="0.5"></rect>
                    <rect stroke="none" fill="#D2B94C" x="72" y="41" width="27" height="1" rx="0.5"></rect>
                    <rect stroke="none" fill="#47A96C" x="72" y="44" width="41" height="1" rx="0.5"></rect>
                    <rect stroke="none" fill="#D8D8D8" x="46" y="61" width="100" height="14" rx="2"></rect>
                    <rect stroke="none" fill="#19CE00" x="48" y="64" width="57" height="1" rx="0.5"></rect>
                    <rect stroke="none" fill="#19CE00" x="48" y="66" width="62" height="1" rx="0.5"></rect>
                    <rect stroke="none" fill="#19CE00" x="48" y="68" width="80" height="1" rx="0.5"></rect>
                    <rect stroke="none" fill="#19CE00" x="48" y="70" width="69" height="1" rx="0.5"></rect>
                    <rect stroke="none" fill="#19CE00" x="48" y="72" width="71" height="1" rx="0.5"></rect>
                    <rect stroke="none" fill="#D8D8D8" x="46" y="26" width="23" height="34" rx="2"></rect>
                    <rect stroke="none" fill="#6D6D6D" x="48" y="28" width="16" height="1" rx="0.5"></rect>
                    <rect stroke="none" fill="#6D6D6D" x="48" y="44" width="16" height="1" rx="0.5"></rect>
                    <rect stroke="none" fill="#6D6D6D" x="48" y="30" width="16" height="1" rx="0.5"></rect>
                    <rect stroke="none" fill="#6D6D6D" x="48" y="32" width="16" height="1" rx="0.5"></rect>
                    <rect stroke="none" fill="#6D6D6D" x="48" y="34" width="16" height="1" rx="0.5"></rect>
                    <rect stroke="none" fill="#6D6D6D" x="48" y="36" width="16" height="1" rx="0.5"></rect>
                    <rect stroke="none" fill="#6D6D6D" x="48" y="38" width="16" height="1" rx="0.5"></rect>
                    <rect stroke="none" fill="#6D6D6D" x="48" y="40" width="16" height="1" rx="0.5"></rect>
                    <rect stroke="none" fill="#6D6D6D" x="48" y="42" width="16" height="1" rx="0.5"></rect>
                    <rect stroke="none" fill="#FFFFFF" x="204" y="91" width="1" height="3" rx="0.5"></rect>
                    <rect stroke="none" fill-opacity="0.6" fill="#00FF01" x="203" y="67" width="36" height="1" rx="0.5"></rect>
                    <rect stroke="none" fill-opacity="0.6" fill="#00FF01" x="203" y="72" width="31" height="1" rx="0.5"></rect>
                    <rect stroke="none" fill-opacity="0.6" fill="#00FF01" x="203" y="77" width="57" height="1" rx="0.5"></rect>
                    <rect stroke="none" fill-opacity="0.6" fill="#00FF01" x="203" y="82" width="41" height="1" rx="0.5"></rect>
                    <rect stroke="none" fill-opacity="0.6" fill="#00FF01" x="203" y="87" width="51" height="1" rx="0.5"></rect>
                    <rect stroke="none" fill-opacity="0.91" fill="#E68E4C" x="195" y="121" width="112" height="8" rx="2"></rect>
                    <rect stroke="none" fill-opacity="0.91" fill="#F2F1F1" x="196" y="120" width="112" height="8" rx="2"></rect>
                    <rect stroke="none" fill-opacity="0.91" fill="#E68E4C" x="97" y="103" width="43" height="25"></rect>
                    <rect stroke="none" fill-opacity="0.91" fill="#E68E4C" x="0" y="129" width="389" height="9" rx="2"></rect>
                    <rect stroke="none" fill-opacity="0.91" fill="#E68E4C" x="341" y="104" width="21" height="25" rx="2"></rect>
                    <rect stroke="none" fill="#7EBC7E" x="1" y="128" width="389" height="9" rx="2"></rect>
                    <rect stroke="none" fill-opacity="0.91" fill="#F2F1F1" x="100" y="103" width="43" height="25"></rect>
                    <rect stroke="none" fill-opacity="0.91" fill="#E68E4C" x="310" y="141" width="6" height="141" rx="2"></rect>
                    <rect stroke="none" fill="#7EBC7E" x="311" y="140" width="6" height="141" rx="2"></rect>
                    <rect stroke="none" fill-opacity="0.91" fill="#E68E4C" x="39" y="142" width="6" height="141" rx="2"></rect>
                    <rect stroke="none" fill="#7EBC7E" x="40" y="141" width="6" height="141" rx="2"></rect>
                    <rect stroke="none" fill="#FFFFFF" x="342" y="103" width="21" height="25" rx="2"></rect>
                </g>
            </g>
            <g id="server" mask="url(#mask-3)">
                <g transform="translate(38.000000, 61.000000)" id="Rectangle">
                    <rect fill-opacity="0.91" fill="#E68E4C" x="0" y="2" width="176" height="312" rx="8"></rect>
                    <rect fill-opacity="0.91" fill="#F2F1F1" x="3" y="0" width="176" height="312" rx="8"></rect>
                    <rect fill="#3FFF00" x="134" y="22" width="4" height="5" rx="2"></rect>
                    <rect fill="#3FFF00" x="148" y="22" width="4" height="5" rx="2"></rect>
                    <rect fill="#3FFF00" x="141" y="22" width="4" height="5" rx="2"></rect>
                    <rect fill="#3FFF00" x="134" y="55" width="4" height="5" rx="2"></rect>
                    <rect fill="#3FFF00" x="148" y="55" width="4" height="5" rx="2"></rect>
                    <rect fill="#3FFF00" x="141" y="55" width="4" height="5" rx="2"></rect>
                    <rect fill="#3FFF00" x="134" y="88" width="4" height="5" rx="2"></rect>
                    <rect fill="#3FFF00" x="148" y="88" width="4" height="5" rx="2"></rect>
                    <rect fill="#3FFF00" x="141" y="88" width="4" height="5" rx="2"></rect>
                    <rect fill="#3FFF00" x="134" y="121" width="4" height="5" rx="2"></rect>
                    <rect fill="#3FFF00" x="148" y="121" width="4" height="5" rx="2"></rect>
                    <rect fill="#3FFF00" x="141" y="121" width="4" height="5" rx="2"></rect>
                    <rect fill="#3FFF00" x="134" y="154" width="4" height="5" rx="2"></rect>
                    <rect fill="#3FFF00" x="148" y="154" width="4" height="5" rx="2"></rect>
                    <rect fill="#3FFF00" x="141" y="154" width="4" height="5" rx="2"></rect>
                    <rect fill="#3FFF00" x="134" y="187" width="4" height="5" rx="2"></rect>
                    <rect fill="#3FFF00" x="148" y="187" width="4" height="5" rx="2"></rect>
                    <rect fill="#3FFF00" x="141" y="187" width="4" height="5" rx="2"></rect>
                    <rect fill="#3FFF00" x="134" y="220" width="4" height="5" rx="2"></rect>
                    <rect fill="#3FFF00" x="148" y="220" width="4" height="5" rx="2"></rect>
                    <rect fill="#3FFF00" x="141" y="220" width="4" height="5" rx="2"></rect>
                    <rect fill="#A1A1A1" opacity="0.5" x="11" y="211" width="160" height="2" rx="1"></rect>
                    <rect fill="#A1A1A1" opacity="0.497058" x="11" y="244" width="160" height="2" rx="1"></rect>
                    <rect fill="#A1A1A1" opacity="0.5" x="11" y="46" width="160" height="2" rx="1"></rect>
                    <rect fill="#A1A1A1" opacity="0.5" x="11" y="178" width="160" height="2" rx="1"></rect>
                    <rect fill="#A1A1A1" opacity="0.5" x="11" y="79" width="160" height="2" rx="1"></rect>
                    <rect fill="#A1A1A1" opacity="0.5" x="11" y="112" width="160" height="2" rx="1"></rect>
                    <rect fill="#A1A1A1" opacity="0.5" x="11" y="145" width="160" height="2" rx="1"></rect>
                </g>
            </g>
        </g>
        <polygon id="Path" fill-opacity="0.214360591" fill="#FFFFFF" points="603.033904 164 603.865754 151.938715 590.353321 129.397763 587.35883 158.188992 588.691535 164"></polygon>
        <polygon id="Path-2" fill-opacity="0.34871903" fill="#FFFFFF" points="598.589068 164 601.334303 155.619429 599.961685 142.517773 593.874051 164"></polygon>
        <polygon id="Path-3" fill-opacity="0.430985884" fill="#FFFFFF" points="597.35177 164 594.503184 152.270194 593.874051 126.223883 590.353321 164"></polygon>
    </g>
</svg>